<?xml version="1.0" encoding="UTF-8" standalone="no"?>
<!-- Filename: 18ef046544b9bc1ae9bb87ae2c71b709779b5aa73181c832531fff1da1d5fc38.svg -->
<!-- Created with https://svgstud.io -->
<!-- eepy pepsi-->
<svg
  version="1.1"
  xmlns="http://www.w3.org/2000/svg"
  xmlns:xlink="http://www.w3.org/1999/xlink"
  xmlns:svg="http://www.w3.org/2000/svg"
  xmlns:rdf="http://www.w3.org/1999/02/22-rdf-syntax-ns#"
  xmlns:cc="http://creativecommons.org/ns#"
  xmlns:dc="http://purl.org/dc/elements/1.1/"
  viewBox="0 0 640 640"
  width="640"
  height="640"
  role="img"
  aria-labelledby="titleID descID"
>
  <title id="titleID">eepy pepsi</title>
  <desc id="descID">AI-generated SVG illustration: eepy pepsi, created on https://svgstud.io</desc>

  <rect width="100%" height="100%" fill="white" />

  <metadata>
    Created by https://svgstud.io and licensed under CC-BY-SA 4.0 license. Please attribute https://svgstud.io
  </metadata>
  <metadata>
    eepy pepsi
  </metadata>
  <metadata>
    7
  </metadata>
  <metadata>
    <rdf:RDF
      xmlns:rdf="http://www.w3.org/1999/02/22-rdf-syntax-ns#"
      xmlns:cc="http://creativecommons.org/ns#"
      xmlns:dc="http://purl.org/dc/elements/1.1/"
    >
      <cc:Work rdf:about="">
        <cc:license rdf:resource="http://creativecommons.org/licenses/by-sa/4.0/" />
        <dc:creator>
          <cc:Agent>
            <dc:title>https://svgstud.io</dc:title>
          </cc:Agent>
        </dc:creator>
      </cc:Work>
      <cc:License rdf:about="http://creativecommons.org/licenses/by-sa/4.0/">
        <cc:permits rdf:resource="http://creativecommons.org/ns#Reproduction" />
        <cc:permits rdf:resource="http://creativecommons.org/ns#Distribution" />
        <cc:requires rdf:resource="http://creativecommons.org/ns#Notice" />
        <cc:requires rdf:resource="http://creativecommons.org/ns#Attribution" />
        <cc:permits rdf:resource="http://creativecommons.org/ns#DerivativeWorks" />
        <cc:requires rdf:resource="http://creativecommons.org/ns#ShareAlike" />
      </cc:License>
    </rdf:RDF>
  </metadata>
  <metadata id="uid">18ef046544b9bc1ae9bb87ae2c71b709779b5aa73181c832531fff1da1d5fc38</metadata>

  <path stroke="none" fill="#00397e" fill-rule="evenodd" d="M332.50,635.24C323.70,635.43 309.75,635.28 301.50,634.89C293.25,634.51 283.57,633.69 280.00,633.07C276.43,632.45 271.02,631.67 268.00,631.34C264.98,631.00 254.82,628.79 245.44,626.41C236.05,624.03 222.70,620.07 215.77,617.62C208.84,615.16 196.84,610.22 189.10,606.65C181.36,603.08 169.35,596.86 162.41,592.83C155.48,588.80 145.23,582.16 139.65,578.09C134.07,574.01 127.25,568.98 124.50,566.90C121.75,564.82 113.79,557.80 106.81,551.31C99.83,544.81 89.51,534.36 83.87,528.08C78.23,521.80 68.86,509.79 63.06,501.39C57.25,492.98 49.91,481.66 46.73,476.22C43.56,470.77 38.01,459.84 34.40,451.91C30.80,443.98 25.61,430.98 22.87,423.00C20.14,415.02 16.34,402.03 14.43,394.12C12.52,386.21 10.09,373.61 9.03,366.12C7.97,358.63 6.61,345.06 6.02,335.96C5.25,324.18 5.25,314.68 6.01,302.96C6.60,293.91 7.70,282.68 8.47,278.00C9.23,273.32 10.16,267.15 10.52,264.29C10.88,261.42 12.52,253.77 14.15,247.29C15.79,240.80 17.56,233.70 18.10,231.50C18.63,229.30 20.18,224.46 21.54,220.75C22.89,217.04 25.20,210.74 26.66,206.75C28.12,202.76 32.39,193.05 36.15,185.17C39.90,177.29 46.67,164.70 51.19,157.18C55.71,149.67 63.65,137.89 68.82,131.01C73.99,124.13 84.04,112.33 91.15,104.78C98.27,97.24 108.68,87.08 114.29,82.20C119.91,77.33 130.12,69.27 137.00,64.31C143.88,59.34 154.95,52.07 161.61,48.16C168.26,44.24 177.94,39.05 183.11,36.64C188.27,34.22 195.65,30.87 199.50,29.20C203.35,27.53 211.90,24.30 218.50,22.02C225.10,19.73 236.57,16.35 244.00,14.49C251.43,12.63 262.90,10.22 269.50,9.12C276.10,8.03 286.98,6.65 293.67,6.07C300.37,5.48 312.74,5.00 321.17,5.01C329.60,5.02 341.90,5.48 348.50,6.05C355.10,6.62 365.87,7.97 372.42,9.06C378.98,10.14 389.95,12.42 396.80,14.11C403.64,15.81 415.38,19.34 422.87,21.97C430.37,24.59 439.27,27.91 442.66,29.35C446.05,30.78 453.25,34.07 458.66,36.65C464.07,39.23 474.57,44.94 482.00,49.34C489.43,53.74 501.49,61.80 508.81,67.26C516.12,72.72 525.80,80.59 530.31,84.75C534.81,88.92 540.52,94.21 543.00,96.51C545.48,98.82 550.47,104.03 554.11,108.10C557.74,112.17 563.15,118.42 566.14,122.00C569.12,125.58 574.83,133.16 578.81,138.86C582.80,144.56 588.61,153.56 591.72,158.86C594.83,164.16 598.91,171.43 600.79,175.00C602.67,178.57 606.43,186.45 609.15,192.50C611.86,198.55 616.49,210.70 619.42,219.50C622.35,228.30 626.13,241.57 627.83,249.00C629.52,256.43 631.60,267.00 632.44,272.50C633.29,278.00 634.49,288.35 635.11,295.50C635.80,303.38 636.01,316.96 635.65,330.00C635.22,345.49 634.34,356.04 632.53,367.74C631.14,376.68 628.84,388.38 627.40,393.74C625.96,399.11 623.97,406.43 622.96,410.00C621.96,413.57 619.15,422.12 616.72,429.00C614.29,435.88 610.94,444.20 609.27,447.50C607.60,450.80 605.09,456.20 603.70,459.50C602.31,462.80 597.57,471.57 593.17,479.00C588.77,486.43 582.77,495.80 579.83,499.83C576.90,503.86 573.42,508.51 572.10,510.15C570.78,511.80 568.53,514.86 567.10,516.96C565.67,519.07 562.31,523.20 559.64,526.14C556.97,529.09 551.50,534.88 547.48,539.00C543.47,543.12 535.34,551.00 529.42,556.50C523.50,562.00 516.60,567.86 514.08,569.53C511.56,571.20 506.03,575.18 501.79,578.38C497.54,581.57 489.22,587.10 483.29,590.65C477.35,594.21 468.00,599.29 462.50,601.94C457.00,604.59 448.96,608.42 444.62,610.45C440.29,612.48 430.16,616.27 422.12,618.89C414.08,621.50 400.75,625.26 392.50,627.24C384.25,629.22 373.68,631.34 369.00,631.97C364.32,632.59 357.80,633.50 354.50,634.00C351.20,634.49 341.30,635.05 332.50,635.24zM319.50,615.85C327.20,615.93 338.45,615.55 344.50,615.00C350.55,614.45 360.00,613.30 365.50,612.45C371.00,611.59 381.57,609.50 389.00,607.80C396.43,606.10 406.32,603.39 411.00,601.78C415.68,600.16 421.98,598.05 425.02,597.09C428.05,596.12 433.45,593.94 437.02,592.26C440.58,590.57 447.77,587.15 453.00,584.65C458.23,582.15 467.68,577.00 474.00,573.22C480.32,569.43 490.31,562.71 496.19,558.29C502.08,553.87 511.98,545.70 518.19,540.13C524.41,534.56 534.06,524.94 539.63,518.75C545.20,512.56 553.36,502.70 557.77,496.84C562.18,490.98 569.23,480.52 573.42,473.59C577.62,466.67 583.96,454.93 587.52,447.50C591.07,440.08 596.22,427.82 598.97,420.25C601.72,412.69 605.57,400.00 607.53,392.06C609.49,384.12 612.24,369.72 613.64,360.06C615.77,345.31 616.18,338.89 616.16,320.00C616.14,300.90 615.75,294.86 613.52,280.00C612.08,270.38 609.36,256.43 607.48,249.00C605.60,241.57 602.09,229.65 599.67,222.50C597.25,215.35 592.31,203.17 588.68,195.43C585.06,187.69 578.77,175.75 574.71,168.89C570.65,162.03 562.79,150.36 557.25,142.96C551.70,135.56 545.63,128.02 543.75,126.22C540.33,122.93 540.33,122.93 540.42,147.22C540.47,163.61 540.06,173.94 539.15,179.00C538.40,183.12 536.67,191.00 535.30,196.50C533.93,202.00 532.45,206.95 532.02,207.50C531.59,208.05 530.92,209.97 530.53,211.77C530.15,213.57 528.11,219.02 526.00,223.87C523.90,228.72 520.28,236.48 517.96,241.10C515.64,245.72 509.91,255.30 505.24,262.39C499.88,270.51 493.70,278.32 488.52,283.51C484.00,288.04 477.65,293.57 474.40,295.79C471.16,298.02 464.61,301.89 459.87,304.39C455.12,306.89 446.44,310.29 440.59,311.93C434.73,313.57 422.21,315.90 412.72,317.11C395.93,319.24 394.44,319.27 352.50,318.15C316.41,317.18 306.20,317.23 289.00,318.45C277.73,319.25 265.57,320.38 262.00,320.98C258.43,321.57 250.78,322.99 245.00,324.13C239.22,325.27 229.18,327.97 222.68,330.12C216.19,332.27 208.99,334.98 206.68,336.14C204.38,337.30 198.85,340.62 194.39,343.51C189.93,346.41 183.03,351.84 179.07,355.58C175.10,359.32 168.82,366.46 165.10,371.44C161.39,376.42 156.71,383.23 154.71,386.57C152.71,389.91 149.27,396.57 147.06,401.37C144.85,406.17 141.50,414.23 139.61,419.30C137.71,424.36 135.04,432.55 133.67,437.50C132.30,442.45 130.01,451.90 128.58,458.50C127.16,465.10 125.08,477.70 123.96,486.50C122.84,495.30 121.65,510.38 121.32,520.00C120.72,537.50 120.72,537.50 127.61,543.58C131.40,546.92 139.36,553.34 145.30,557.83C151.25,562.32 162.16,569.59 169.55,573.99C176.95,578.40 188.96,584.84 196.25,588.32C203.54,591.79 216.25,596.94 224.50,599.75C232.75,602.57 245.35,606.23 252.50,607.89C259.65,609.56 270.23,611.66 276.00,612.55C281.77,613.45 290.77,614.53 296.00,614.95C301.23,615.37 311.80,615.77 319.50,615.85zM98.79,514.00C99.76,514.00 99.99,513.20 99.57,511.25C99.25,509.74 98.34,503.77 97.54,498.00C96.74,492.23 95.58,479.62 94.95,470.00C94.33,460.38 94.11,448.23 94.46,443.00C94.82,437.77 95.78,426.52 96.60,418.00C97.43,409.48 99.90,393.95 102.11,383.50C104.31,373.05 106.53,363.15 107.03,361.50C107.53,359.85 109.36,354.00 111.09,348.50C112.83,343.00 116.02,334.00 118.20,328.50C120.37,323.00 124.19,314.00 126.69,308.50C129.18,303.00 133.48,294.23 136.24,289.00C139.01,283.77 142.87,276.80 144.82,273.50C146.78,270.20 152.41,261.43 157.34,254.00C162.27,246.57 169.02,236.90 172.34,232.50C175.67,228.10 180.62,221.80 183.35,218.50C186.08,215.20 191.29,209.13 194.91,205.00C198.53,200.88 204.68,194.35 208.56,190.50C212.44,186.65 219.42,180.08 224.06,175.91C228.70,171.73 233.40,167.59 234.50,166.70C235.60,165.81 239.88,162.45 244.00,159.23C248.12,156.01 255.10,150.94 259.50,147.96C263.90,144.98 271.10,140.34 275.50,137.63C279.90,134.93 290.48,129.22 299.00,124.95C307.52,120.67 318.32,115.61 323.00,113.70C327.68,111.79 333.07,109.76 335.00,109.20C336.93,108.63 342.32,106.84 347.00,105.22C351.68,103.60 358.65,101.34 362.50,100.21C366.35,99.08 373.77,97.22 379.00,96.09C384.23,94.96 393.68,93.16 400.00,92.10C406.32,91.04 415.77,89.57 421.00,88.84C427.49,87.92 441.78,87.50 466.15,87.50C485.77,87.50 501.62,87.19 501.39,86.82C501.16,86.44 497.49,83.51 493.23,80.29C488.98,77.07 483.25,73.05 480.50,71.34C477.75,69.64 471.45,65.88 466.50,62.99C457.50,57.74 457.50,57.74 434.00,58.89C421.07,59.52 407.50,60.25 403.83,60.52C400.16,60.78 396.45,60.73 395.58,60.39C394.41,59.94 394.00,58.39 394.00,54.46C394.00,50.25 394.37,49.03 395.75,48.63C396.71,48.36 405.07,47.82 414.33,47.44C423.82,47.05 430.77,46.37 430.28,45.88C429.81,45.41 423.41,42.96 416.07,40.45C408.73,37.94 397.11,34.54 390.25,32.90C383.38,31.26 373.21,29.24 367.63,28.41C362.06,27.57 351.65,26.48 344.50,25.98C337.35,25.47 329.70,24.85 327.50,24.59C325.30,24.33 314.95,24.74 304.50,25.52C294.05,26.29 280.77,27.58 275.00,28.38C269.23,29.19 258.80,31.21 251.82,32.88C244.85,34.55 232.70,38.12 224.82,40.83C216.95,43.53 204.43,48.58 197.00,52.06C189.57,55.53 178.78,61.08 173.00,64.38C167.22,67.68 159.57,72.40 156.00,74.87C152.43,77.34 146.29,81.72 142.36,84.61C138.43,87.49 130.81,93.82 125.42,98.68C120.03,103.53 114.25,108.89 112.56,110.58C110.88,112.28 105.75,117.76 101.17,122.75C96.58,127.75 89.17,136.71 84.69,142.67C80.21,148.63 73.70,158.00 70.22,163.50C66.74,169.00 60.56,180.18 56.48,188.35C52.40,196.52 48.10,205.74 46.92,208.85C45.73,211.96 43.04,219.48 40.93,225.56C38.83,231.64 35.72,242.20 34.03,249.03C32.34,255.87 30.07,267.28 28.98,274.39C27.89,281.51 26.50,293.67 25.90,301.42C25.28,309.38 25.09,322.02 25.46,330.50C25.83,338.75 27.02,352.02 28.11,360.00C29.20,367.98 31.61,381.02 33.47,389.00C35.32,396.98 39.08,409.80 41.81,417.50C44.54,425.20 49.28,436.99 52.33,443.71C55.39,450.42 60.68,460.77 64.10,466.71C67.51,472.64 72.13,480.20 74.35,483.50C76.58,486.80 80.93,492.92 84.02,497.10C87.11,501.28 91.40,506.79 93.53,509.35C95.67,511.91 98.04,514.00 98.79,514.00zM111.22,488.50C111.66,485.20 113.18,475.52 114.60,467.00C116.03,458.48 118.47,446.55 120.03,440.50C121.59,434.45 124.07,425.90 125.54,421.50C127.01,417.10 129.56,410.35 131.20,406.50C132.85,402.65 135.51,396.67 137.11,393.21C138.72,389.76 142.33,383.23 145.15,378.71C147.96,374.20 152.63,367.35 155.51,363.50C158.39,359.65 164.84,352.56 169.84,347.75C174.84,342.94 182.66,336.58 187.21,333.62C191.77,330.66 198.65,326.68 202.50,324.76C206.35,322.85 213.78,319.93 219.00,318.27C224.22,316.61 232.55,314.28 237.50,313.07C242.45,311.87 249.43,310.46 253.00,309.94C256.57,309.41 264.45,308.23 270.50,307.30C280.03,305.85 289.58,305.65 341.85,305.85C379.71,305.99 405.98,305.68 412.35,305.00C417.93,304.41 426.32,303.00 431.00,301.87C435.68,300.74 443.32,298.21 448.00,296.24C452.68,294.28 460.12,290.30 464.54,287.41C468.96,284.52 476.19,278.40 480.59,273.81C485.00,269.22 491.66,260.82 495.40,255.15C499.14,249.48 504.52,240.26 507.35,234.66C510.18,229.06 513.38,222.46 514.45,219.99C515.53,217.52 517.44,212.57 518.71,209.00C519.98,205.43 522.10,198.22 523.43,193.00C524.76,187.78 526.56,178.42 527.43,172.22C528.29,166.01 529.00,156.33 528.99,150.72C528.99,145.10 528.34,136.19 527.54,130.91C526.75,125.64 525.35,118.03 524.43,114.00C523.42,109.54 521.92,105.83 520.60,104.51C518.82,102.73 516.26,102.10 505.97,100.92C497.77,99.99 483.39,99.52 464.00,99.56C442.55,99.60 430.72,100.08 420.63,101.33C413.01,102.27 399.02,104.60 389.54,106.51C380.07,108.41 366.47,111.77 359.33,113.97C352.19,116.17 341.65,119.74 335.91,121.89C330.18,124.04 320.76,127.99 314.99,130.67C309.22,133.34 300.00,137.96 294.50,140.94C289.00,143.92 280.90,148.59 276.50,151.31C272.10,154.04 263.55,159.90 257.50,164.34C251.45,168.78 241.99,176.31 236.48,181.08C230.97,185.85 220.42,195.99 213.04,203.63C205.66,211.26 195.10,223.18 189.56,230.13C184.03,237.07 175.39,248.77 170.37,256.13C165.35,263.48 158.62,274.00 155.42,279.50C152.22,285.00 146.49,295.80 142.69,303.50C138.90,311.20 133.97,322.00 131.75,327.50C129.53,333.00 126.39,341.32 124.77,346.00C123.15,350.68 120.07,361.31 117.94,369.62C115.80,377.94 112.96,391.22 111.62,399.12C110.28,407.03 108.63,419.01 107.95,425.75C107.13,433.77 106.89,446.00 107.25,461.25C107.59,475.44 108.31,486.45 109.11,489.50C110.43,494.50 110.43,494.50 111.22,488.50zM152.00,140.00C151.46,140.00 149.86,138.16 148.44,135.91C147.02,133.66 146.07,131.26 146.33,130.58C146.59,129.90 160.24,121.76 176.65,112.49C193.07,103.23 211.67,92.78 217.98,89.28C224.30,85.78 230.38,82.69 231.48,82.42C233.08,82.02 234.03,82.89 236.00,86.55C238.48,91.16 238.49,91.20 236.50,92.67C235.40,93.49 228.65,97.43 221.50,101.43C214.35,105.43 199.50,113.80 188.50,120.03C177.50,126.26 165.01,133.30 160.74,135.68C156.47,138.05 152.53,140.00 152.00,140.00zM296.54,94.00C294.23,94.00 292.03,93.70 291.67,93.33C291.30,92.97 291.00,90.55 291.00,87.97C291.00,85.39 291.46,80.85 292.02,77.89C292.58,74.93 294.31,69.81 295.86,66.50C297.41,63.20 301.02,57.93 303.90,54.79C307.43,50.94 311.18,48.12 315.48,46.08C318.98,44.43 324.75,42.54 328.31,41.89C333.38,40.95 336.14,40.96 341.10,41.94C344.59,42.63 349.65,44.31 352.35,45.68C355.05,47.05 359.53,50.27 362.29,52.83C365.06,55.40 369.05,60.16 371.16,63.41C373.27,66.65 375.00,70.15 375.00,71.18C375.00,72.30 373.90,73.47 372.25,74.10C370.74,74.67 368.35,75.38 366.95,75.66C364.70,76.11 363.94,75.44 360.68,70.16C358.64,66.86 355.52,62.92 353.74,61.42C351.96,59.91 348.11,57.58 345.18,56.23C340.74,54.19 338.67,53.85 332.68,54.15C327.43,54.42 324.15,55.22 320.50,57.11C317.14,58.84 313.96,61.71 310.80,65.84C308.21,69.22 305.60,73.68 304.99,75.74C304.39,77.81 303.63,82.20 303.31,85.50C302.99,88.80 302.29,92.06 301.74,92.75C301.20,93.44 298.86,94.00 296.54,94.00z" />

</svg>
