<?xml version="1.0" encoding="UTF-8" standalone="no"?>
<!-- Filename: 5e3c405d9ec47d797b9e4e1d10cb226ea0fa37f94453388812d5ca8fdbc45730.svg -->
<!-- Created with https://svgstud.io -->
<!-- happy pepsi-->
<svg
  version="1.1"
  xmlns="http://www.w3.org/2000/svg"
  xmlns:xlink="http://www.w3.org/1999/xlink"
  xmlns:svg="http://www.w3.org/2000/svg"
  xmlns:rdf="http://www.w3.org/1999/02/22-rdf-syntax-ns#"
  xmlns:cc="http://creativecommons.org/ns#"
  xmlns:dc="http://purl.org/dc/elements/1.1/"
  viewBox="0 0 640 640"
  width="640"
  height="640"
  role="img"
  aria-labelledby="titleID descID"
>
  <title id="titleID">happy pepsi</title>
  <desc id="descID">AI-generated SVG illustration: happy pepsi, created on https://svgstud.io</desc>

  <rect width="100%" height="100%" fill="white" />

  <metadata>
    Created by https://svgstud.io and licensed under CC-BY-SA 4.0 license. Please attribute https://svgstud.io
  </metadata>
  <metadata>
    happy pepsi
  </metadata>
  <metadata>
    7
  </metadata>
  <metadata>
    <rdf:RDF
      xmlns:rdf="http://www.w3.org/1999/02/22-rdf-syntax-ns#"
      xmlns:cc="http://creativecommons.org/ns#"
      xmlns:dc="http://purl.org/dc/elements/1.1/"
    >
      <cc:Work rdf:about="">
        <cc:license rdf:resource="http://creativecommons.org/licenses/by-sa/4.0/" />
        <dc:creator>
          <cc:Agent>
            <dc:title>https://svgstud.io</dc:title>
          </cc:Agent>
        </dc:creator>
      </cc:Work>
      <cc:License rdf:about="http://creativecommons.org/licenses/by-sa/4.0/">
        <cc:permits rdf:resource="http://creativecommons.org/ns#Reproduction" />
        <cc:permits rdf:resource="http://creativecommons.org/ns#Distribution" />
        <cc:requires rdf:resource="http://creativecommons.org/ns#Notice" />
        <cc:requires rdf:resource="http://creativecommons.org/ns#Attribution" />
        <cc:permits rdf:resource="http://creativecommons.org/ns#DerivativeWorks" />
        <cc:requires rdf:resource="http://creativecommons.org/ns#ShareAlike" />
      </cc:License>
    </rdf:RDF>
  </metadata>
  <metadata id="uid">5e3c405d9ec47d797b9e4e1d10cb226ea0fa37f94453388812d5ca8fdbc45730</metadata>

  <path stroke="none" fill="#00397e" fill-rule="evenodd" d="M 330.5 635.2 C 323.4 635.4 311.4 635.2 304 634.9 C 296.6 634.6 284.9 633.5 278 632.5 C 271.1 631.5 258.1 629 249 626.9 C 239.9 624.8 225.5 620.6 217 617.6 C 208.5 614.6 195 609.2 187.1 605.5 C 179.2 601.8 170.4 597.4 167.6 595.6 C 164.8 593.8 158.9 590.3 154.5 587.8 C 150.1 585.3 140.6 578.8 133.5 573.4 C 126.3 568 115.1 558.8 108.5 552.8 C 101.9 546.8 91.8 536.7 86 530.3 C 80.2 523.9 71.8 513.7 67.3 507.6 C 62.8 501.5 55 489.6 49.9 481.1 C 44.9 472.6 37.9 459.4 34.3 451.6 C 30.8 443.9 25.7 431.2 23 423.5 C 20.3 415.8 16.3 402.1 14.1 393 C 11.9 383.9 9.2 369.1 8.1 360 C 7 350.9 5.8 336.5 5.4 328 C 5 317.5 5.3 307.3 6.4 296.5 C 7.2 287.7 8.6 275.6 9.5 269.5 C 10.4 263.4 12.7 252.2 14.6 244.5 C 16.5 236.8 20.2 224.4 22.7 217 C 25.2 209.6 30.6 196.3 34.8 187.5 C 38.9 178.7 46 165.3 50.6 157.8 C 55.1 150.3 63 138.6 68.1 131.8 C 73.1 125 82 114.2 87.9 107.7 C 93.7 101.2 104 91 110.6 85 C 117.3 79.1 128.6 70 135.6 64.9 C 142.7 59.8 155 51.9 162.9 47.3 C 170.8 42.7 183.3 36.2 190.9 32.9 C 198.4 29.5 210 24.8 216.8 22.4 C 223.6 20 236.6 16.2 245.7 14 C 254.8 11.7 270.8 8.8 281.4 7.4 C 298.7 5.1 302.8 4.9 325.5 5.3 C 344.2 5.6 354.3 6.3 365.5 7.9 C 373.8 9.2 387 11.7 395 13.7 C 403 15.6 412.2 18.1 415.5 19.2 C 418.8 20.3 425.8 22.8 431 24.7 C 436.2 26.6 442.8 29.2 445.5 30.5 C 448.3 31.7 454.6 34.7 459.5 37 C 464.4 39.4 474.6 44.9 482 49.3 C 489.4 53.7 500.7 61.1 507 65.8 C 513.3 70.5 523.5 78.7 529.5 84.1 C 535.5 89.4 543.6 97.1 547.5 101.2 C 551.4 105.2 557.3 111.7 560.6 115.5 C 564 119.4 571 128.4 576.2 135.5 C 581.3 142.7 587.5 151.9 590 156 C 592.4 160.1 595.6 165.5 597.1 168 C 598.6 170.5 601.5 176.1 603.5 180.5 C 605.5 184.9 608.9 192.3 611 197 C 613.1 201.7 617.1 212.5 619.9 221 C 622.6 229.5 626.1 241.4 627.5 247.5 C 629 253.5 630.6 261 631 264 C 631.5 267 632.6 274.4 633.6 280.5 C 634.9 289 635.3 298.1 635.3 320.5 C 635.4 345.9 635.1 351.2 633.1 363.5 C 631.9 371.2 629.3 384.3 627.4 392.5 C 625.5 400.8 623.3 409.3 622.5 411.5 C 621.8 413.7 619.3 420.7 617.1 427.1 C 614.8 433.6 611.3 442.6 609.1 447.1 C 607 451.7 603.4 459.3 601.1 464 C 598.9 468.7 594 477.5 590.3 483.5 C 586.5 489.6 582.3 496.1 580.9 498 C 579.5 499.9 575 506 571 511.4 C 566.9 516.9 558.4 527 552.1 533.9 C 545.7 540.7 539.2 547.5 537.6 548.9 C 536 550.3 530.2 555.4 524.9 560.2 C 519.5 565 514 569.4 512.8 570.1 C 511.5 570.8 506.2 574.6 501 578.5 C 495.8 582.5 489.9 586.5 488 587.5 C 486.1 588.5 480.2 591.9 474.9 595.1 C 469.6 598.3 464.4 601.3 463.4 601.6 C 462.3 602 456.8 604.5 451 607.3 C 445.2 610 432.9 614.8 423.5 618 C 414.1 621.1 403.1 624.5 399 625.4 C 394.9 626.4 387.9 628 383.5 629 C 379.1 630 368.3 631.8 359.5 632.9 C 350.7 634 337.6 635.1 330.5 635.2 z M 326.5 615.3 C 335.3 615.1 346.3 614.5 351 614 C 355.7 613.5 362.7 612.6 366.7 612.1 C 370.6 611.5 378.9 609.9 385.2 608.5 C 391.4 607.1 403.5 603.7 412 600.9 C 420.5 598.2 434.3 592.9 442.7 589.1 C 451 585.4 462.1 579.8 467.2 576.8 C 472.3 573.7 477.6 570.7 479 570 C 480.4 569.3 488.5 563.5 497 557.1 C 508.1 548.9 517.2 540.9 529.1 529 C 538.2 520 549.2 507.8 553.5 502 C 557.9 496.2 562.9 489.5 564.6 487 C 566.3 484.5 570.2 478.4 573.3 473.5 C 576.3 468.5 582.2 457.5 586.4 449.1 C 590.5 440.6 594.8 431.2 595.9 428.1 C 597 425 599.4 418 601.3 412.5 C 603.3 407 606.2 396.8 607.9 389.9 C 609.6 383 611.9 371.1 612.9 363.4 C 614 355.8 615.2 346 615.6 341.8 C 616 337.4 615.9 334 615.4 334 C 614.9 334 613 336.8 611.1 340.3 C 609.2 343.7 605 351 601.7 356.5 C 598.3 362 593.1 370.1 590.1 374.5 C 587.1 378.9 581.4 386.6 577.4 391.5 C 573.4 396.4 568 402.8 565.3 405.7 C 562.7 408.5 557.1 413.9 553 417.6 C 548.9 421.3 542.3 426.7 538.4 429.6 C 534.5 432.5 527.4 437.2 522.7 440 C 517.9 442.8 511.9 446 509.3 447.1 C 506.6 448.3 500.9 450.5 496.4 452.1 C 491.9 453.7 485.4 455.6 481.9 456.5 C 478.4 457.3 471 458.7 465.5 459.5 C 460 460.3 450.3 461 443.9 461 C 437.6 461 427.2 460.3 420.9 459.5 C 414.6 458.7 405.9 457.3 401.5 456.4 C 397.1 455.6 390.4 454 386.5 452.9 C 382.6 451.8 376.4 450 372.5 448.8 C 368.6 447.7 359.4 444.6 352 442 C 344.6 439.4 332.4 434.8 325 431.7 C 317.6 428.7 301.8 422.2 290 417.3 C 278.2 412.3 263.6 406.6 257.5 404.5 C 251.4 402.5 244.3 400.2 241.5 399.5 C 238.8 398.8 232.7 397.4 228 396.5 C 222.5 395.4 212.3 394.6 199.5 394.3 C 187.6 394 175.3 394.2 169 394.9 C 163.3 395.5 152.3 397.2 144.5 398.6 C 136.8 400 123.9 402.9 115.9 405.1 C 107.9 407.2 97.3 410.3 92.4 412 C 87.5 413.8 78.3 417.2 72 419.6 C 65.7 422.1 57.6 425.6 54 427.3 C 48.8 429.9 47.6 430.9 47.8 432.5 C 48 433.6 50.4 439.3 53 445.2 C 55.7 451.1 61.1 461.4 65 468.1 C 69 474.9 73.6 482.4 75.3 484.9 C 77 487.4 81.1 493.1 84.4 497.5 C 87.7 501.9 95 510.7 100.7 517.1 C 106.3 523.5 116 533.1 122.1 538.6 C 128.2 544 136.4 550.9 140.4 553.8 C 144.3 556.8 148.6 560.1 150 561.3 C 151.4 562.5 158.3 567 165.5 571.4 C 172.7 575.7 185.3 582.5 193.5 586.5 C 201.8 590.5 211.2 594.8 214.5 596 C 217.8 597.2 225.9 599.9 232.5 602 C 239.1 604.1 249.4 607 255.5 608.4 C 261.6 609.8 269.9 611.4 274 612 C 278.1 612.6 285.8 613.5 291 614 C 296.2 614.5 302.8 615.1 305.5 615.3 C 308.3 615.5 317.7 615.5 326.5 615.3 z M 449.5 448.3 C 455.6 448.1 463.6 447.4 467.5 446.9 C 471.4 446.3 477.9 444.9 482 443.9 C 486.1 442.8 492 441 495 439.8 C 498 438.6 504.6 435.7 509.5 433.2 C 514.5 430.8 523 425.6 528.5 421.7 C 534.1 417.7 544 409.1 551.1 402.1 C 558 395.1 565.7 386.8 568.1 383.5 C 570.6 380.2 574.6 374.8 577.2 371.5 C 579.7 368.2 583.6 362.4 586 358.5 C 588.4 354.6 592.5 347.7 595.3 343 C 598 338.3 603.2 328.7 606.7 321.7 C 610.2 314.6 612.8 308.5 612.5 307.9 C 612.1 307.4 610.1 306.1 608 305 C 605.9 303.9 598.1 300.6 590.8 297.6 C 583.5 294.7 571.9 290.4 565 288.2 C 558.1 285.9 548.5 283 543.5 281.6 C 538.5 280.2 528.2 277.8 520.5 276.1 C 512.8 274.4 499.1 271.9 490 270.6 C 480.9 269.2 467.4 267.6 460 266.9 C 452.6 266.3 434.1 265.8 419 265.8 C 401.4 265.8 386 266.4 376.2 267.4 C 367.7 268.3 356 269.7 350.2 270.6 C 344.3 271.4 333.9 273.2 327 274.6 C 320.1 276 308.4 278.7 301 280.6 C 293.6 282.5 281.9 285.9 275 288.1 C 268.1 290.3 256.4 294.4 249 297.2 C 241.6 300 229.1 305.1 221.3 308.6 C 213.5 312.1 202.1 317.5 195.9 320.5 C 189.8 323.6 179.7 329 173.6 332.4 C 167.5 335.9 157.6 341.7 151.5 345.5 C 145.4 349.2 134.2 356.5 126.5 361.8 C 118.8 367.1 108.1 374.8 102.6 378.9 C 97.2 383.1 89.3 389.3 85.1 392.6 C 80.9 396 75.7 400.4 73.5 402.4 C 69.5 406.1 69.5 406.1 72.5 405.6 C 74.2 405.4 82.6 402.7 91.2 399.7 C 99.9 396.7 110.9 393.3 115.7 392 C 120.6 390.8 131.3 388.5 139.5 386.9 C 147.8 385.3 163.1 383.2 173.7 382.3 C 190.2 380.8 195 380.8 207.7 381.9 C 215.8 382.5 225 383.6 228 384.1 C 231 384.7 237.3 386 242 387.1 C 246.7 388.3 254.6 390.5 259.5 392.2 C 264.4 393.9 275.5 398.1 284 401.5 C 292.5 404.9 305.1 410.1 312 413 C 318.9 415.9 329.9 420.4 336.5 423 C 343.1 425.6 352.1 429.1 356.6 430.8 C 361.1 432.5 371.2 435.7 379.1 438 C 387 440.3 398.7 443.3 405 444.7 C 411.3 446 421.4 447.5 427.5 447.9 C 433.6 448.4 443.4 448.6 449.5 448.3 z M 43.4 411.8 C 44.5 411.2 48 408.3 51 405.5 C 54 402.6 63 394.9 71 388.4 C 79 381.8 91.8 371.7 99.5 366.1 C 107.2 360.4 120.5 351.1 129 345.5 C 137.5 339.9 149 332.6 154.5 329.3 C 160 326 166.7 322.1 169.4 320.6 C 172 319 182.6 313.6 192.9 308.5 C 203.1 303.4 218 296.5 226 293.2 C 234 289.9 242.5 286.5 245 285.6 C 247.5 284.8 252.7 282.9 256.5 281.5 C 260.4 280.1 267.6 277.6 272.5 276 C 277.4 274.4 288.5 271.3 297 269.1 C 305.5 266.9 320.4 263.5 330 261.6 C 339.7 259.6 358.7 256.9 372.5 255.4 C 395.3 253.1 400.1 252.9 427 253.3 C 448 253.7 461.5 254.4 474 255.9 C 483.6 257 498 259.2 506 260.6 C 514 262 528.1 265.1 537.5 267.5 C 546.9 269.8 560.2 273.6 567.2 275.9 C 574.2 278.1 586.6 282.8 594.7 286.1 C 602.8 289.4 610.7 292.4 612.3 292.7 C 613.9 293 615 292.8 615 292.1 C 615 291.5 614.1 284.8 613 277.1 C 611.9 269.5 609.7 257.6 608 250.7 C 606.4 243.8 602.8 231.8 600.1 223.9 C 597.5 216 592.5 203.6 589.1 196.3 C 585.8 189.1 579.8 177.7 575.9 171 C 572 164.3 564.7 153.2 559.7 146.2 C 554.7 139.3 545.5 128.2 539.4 121.5 C 533.3 114.9 524.1 105.6 518.9 100.9 C 513.7 96.2 504 88.2 497.2 83.1 C 490.4 78 478.9 70.3 471.5 66 C 464.1 61.6 452.3 55.4 445.3 52.1 C 438.2 48.9 427.3 44.4 421 42.2 C 414.7 40 407.3 37.5 404.5 36.6 C 401.8 35.8 394.9 33.9 389.2 32.5 C 383.5 31.1 374.1 29.3 368.2 28.4 C 362.3 27.6 349.6 26.3 340 25.5 C 326.4 24.4 319 24.3 306.5 25 C 297.7 25.6 284.2 26.9 276.5 28.1 C 268.8 29.2 257.1 31.5 250.5 33.1 C 243.9 34.8 232.2 38.2 224.5 40.7 C 216.8 43.2 209.4 45.9 208 46.6 C 206.6 47.3 201 50 195.5 52.5 C 190 55 180.6 59.9 174.5 63.2 C 168.4 66.6 157.6 73.5 150.4 78.6 C 143.3 83.8 131.6 93 124.4 99.3 C 117.3 105.6 109 113.6 106 117.1 C 103 120.6 99.7 124.1 98.8 124.8 C 97.9 125.5 93.6 130.7 89.4 136.3 C 85.2 141.9 80.3 148.3 78.5 150.5 C 76.8 152.7 72.4 159.4 68.8 165.5 C 65.2 171.6 59.2 182.6 55.5 190 C 51.8 197.4 46.3 210.2 43.3 218.3 C 40.4 226.5 36.4 239.3 34.5 246.8 C 32.6 254.3 29.9 267.7 28.4 276.5 C 26 291 25.7 294.9 25.7 319 C 25.7 341.1 26.1 347.9 27.9 359.9 C 29.1 367.8 31.4 380.2 33 387.4 C 34.7 394.6 36.8 402.8 37.6 405.5 C 38.5 408.3 39.7 411.1 40.2 411.7 C 41 412.7 41.7 412.7 43.4 411.8 z M 239.8 203 C 239.4 203 238.3 201.8 237.4 200.4 C 236.3 198.9 235.5 195 235.2 190.7 C 235 186.7 235.3 181 235.9 178 C 236.6 175 238.1 170.6 239.3 168.3 C 240.5 165.9 243.5 161.6 246 158.6 C 248.5 155.6 252.8 151.8 255.7 150 C 258.5 148.3 263.7 146 267.1 144.9 C 270.6 143.9 275.8 143 278.7 143 C 281.6 143 286.3 143.6 289.3 144.4 C 292.3 145.2 296.6 146.8 299 148 C 301.4 149.2 305.5 152.3 308.3 154.8 C 311.1 157.4 314.6 161.5 316.2 163.9 C 317.7 166.4 319 168.9 319 169.5 C 319 170.1 317.3 171.4 315.2 172.3 C 313.1 173.2 310.6 174 309.7 174 C 308.8 174 306.7 172 305 169.5 C 303.3 167.1 300.5 163.9 298.7 162.6 C 296.9 161.2 293.4 159.2 291 158.1 C 287.8 156.6 284.4 156 279 156 C 272.8 156 270.4 156.5 265.5 158.9 C 261.7 160.6 257.9 163.5 255.3 166.4 C 253 169 250.4 173.4 249.5 176 C 248.6 178.7 247.8 183.1 247.7 185.7 C 247.6 188.3 247.9 192.5 248.3 195 C 249.1 199.5 249.1 199.5 244.8 201.3 C 242.4 202.2 240.2 203 239.8 203 z M 436.2 158 C 433.1 158 431.8 157.5 431.3 156.3 C 430.9 155.4 431.2 151.6 431.8 147.8 C 432.5 144 433.8 139.4 434.7 137.7 C 435.6 135.9 439.1 131.8 442.4 128.4 C 446.8 124 450.1 121.7 454.5 120 C 459.2 118.2 462.4 117.7 469.2 117.7 C 476.8 117.8 478.7 118.2 484.5 120.8 C 488.6 122.8 492.9 125.8 495.9 129 C 498.6 131.8 501.9 136.3 503.1 138.8 C 504.3 141.4 505.5 145.4 505.8 147.7 C 506.2 151.8 506.2 151.9 502.8 152.5 C 500.8 152.9 498.2 153 496.9 152.8 C 495.2 152.6 494.4 151.7 493.9 149.5 C 493.6 147.8 492.6 145.2 491.8 143.5 C 490.9 141.8 488.4 138.8 486.3 136.8 C 484.2 134.8 480.8 132.4 478.6 131.5 C 476.5 130.6 471.9 129.8 468.5 129.8 C 464.5 129.8 461.1 130.4 458.9 131.5 C 457 132.5 453.8 134.7 451.6 136.4 C 449.5 138.1 447 141.1 446 143 C 445 145 443.9 148.8 443.5 151.5 C 443.1 154.3 442.2 156.8 441.6 157.2 C 441 157.6 438.6 158 436.2 158 z" />

</svg>
